<mxfile host="app.diagrams.net" agent="Mozilla/5.0 (Windows NT 10.0; Win64; x64) AppleWebKit/537.36 (KHTML, like Gecko) Chrome/131.0.0.0 Safari/537.36" version="26.0.8">
  <diagram name="Page-1" id="ivwVzXMBQ6dKMdNoXoxE">
    <mxGraphModel dx="2442" dy="2026" grid="1" gridSize="10" guides="1" tooltips="1" connect="1" arrows="1" fold="1" page="1" pageScale="1" pageWidth="827" pageHeight="1169" math="0" shadow="0">
      <root>
        <mxCell id="0" />
        <mxCell id="1" parent="0" />
        <mxCell id="g5F55-jAJaY4PQHa4soR-1" value="ผู้ดูแลระบบ" style="rounded=0;whiteSpace=wrap;html=1;" vertex="1" parent="1">
          <mxGeometry x="-50" y="130" width="90" height="40" as="geometry" />
        </mxCell>
        <mxCell id="g5F55-jAJaY4PQHa4soR-2" value="1" style="swimlane;whiteSpace=wrap;html=1;startSize=20;" vertex="1" parent="1">
          <mxGeometry x="310" y="-10" width="156" height="100" as="geometry" />
        </mxCell>
        <mxCell id="g5F55-jAJaY4PQHa4soR-3" value="จัดการข้อมูลบริการและคอร์ส" style="rounded=0;whiteSpace=wrap;html=1;" vertex="1" parent="g5F55-jAJaY4PQHa4soR-2">
          <mxGeometry y="20" width="156" height="80" as="geometry" />
        </mxCell>
        <mxCell id="g5F55-jAJaY4PQHa4soR-4" value="2" style="swimlane;whiteSpace=wrap;html=1;startSize=20;" vertex="1" parent="1">
          <mxGeometry x="310" y="210" width="156" height="100" as="geometry" />
        </mxCell>
        <mxCell id="g5F55-jAJaY4PQHa4soR-5" value="จัดการข้อมูลลูกค้า" style="rounded=0;whiteSpace=wrap;html=1;" vertex="1" parent="g5F55-jAJaY4PQHa4soR-4">
          <mxGeometry y="20" width="156" height="80" as="geometry" />
        </mxCell>
        <mxCell id="g5F55-jAJaY4PQHa4soR-6" value="4" style="swimlane;whiteSpace=wrap;html=1;startSize=20;" vertex="1" parent="1">
          <mxGeometry x="310" y="560" width="156" height="100" as="geometry" />
        </mxCell>
        <mxCell id="g5F55-jAJaY4PQHa4soR-7" value="จัดการข้อมูลการจอง" style="rounded=0;whiteSpace=wrap;html=1;" vertex="1" parent="g5F55-jAJaY4PQHa4soR-6">
          <mxGeometry y="20" width="156" height="80" as="geometry" />
        </mxCell>
        <mxCell id="g5F55-jAJaY4PQHa4soR-8" value="5" style="swimlane;whiteSpace=wrap;html=1;startSize=20;" vertex="1" parent="1">
          <mxGeometry x="310" y="780" width="156" height="100" as="geometry" />
        </mxCell>
        <mxCell id="g5F55-jAJaY4PQHa4soR-9" value="จัดการข้อมูลการชำระเงิน" style="rounded=0;whiteSpace=wrap;html=1;" vertex="1" parent="g5F55-jAJaY4PQHa4soR-8">
          <mxGeometry y="20" width="156" height="80" as="geometry" />
        </mxCell>
        <mxCell id="g5F55-jAJaY4PQHa4soR-10" value="6" style="swimlane;whiteSpace=wrap;html=1;startSize=20;" vertex="1" parent="1">
          <mxGeometry x="310" y="940" width="156" height="100" as="geometry" />
        </mxCell>
        <mxCell id="g5F55-jAJaY4PQHa4soR-11" value="จัดการข้อมูลการใช้งาน" style="rounded=0;whiteSpace=wrap;html=1;" vertex="1" parent="g5F55-jAJaY4PQHa4soR-10">
          <mxGeometry y="20" width="156" height="80" as="geometry" />
        </mxCell>
        <mxCell id="g5F55-jAJaY4PQHa4soR-12" value="บริการ" style="shape=partialRectangle;whiteSpace=wrap;html=1;left=0;right=0;fillColor=none;" vertex="1" parent="1">
          <mxGeometry x="650.16" y="-80" width="120" height="40" as="geometry" />
        </mxCell>
        <mxCell id="g5F55-jAJaY4PQHa4soR-13" value="D1" style="rounded=0;whiteSpace=wrap;html=1;" vertex="1" parent="1">
          <mxGeometry x="610.16" y="-80" width="40" height="40" as="geometry" />
        </mxCell>
        <mxCell id="g5F55-jAJaY4PQHa4soR-14" value="คอร์ส" style="shape=partialRectangle;whiteSpace=wrap;html=1;left=0;right=0;fillColor=none;" vertex="1" parent="1">
          <mxGeometry x="650.16" y="30" width="120" height="40" as="geometry" />
        </mxCell>
        <mxCell id="g5F55-jAJaY4PQHa4soR-15" value="D2" style="rounded=0;whiteSpace=wrap;html=1;" vertex="1" parent="1">
          <mxGeometry x="610.16" y="30" width="40" height="40" as="geometry" />
        </mxCell>
        <mxCell id="g5F55-jAJaY4PQHa4soR-16" value="หมวดหมู่" style="shape=partialRectangle;whiteSpace=wrap;html=1;left=0;right=0;fillColor=none;" vertex="1" parent="1">
          <mxGeometry x="650.16" y="130" width="120" height="40" as="geometry" />
        </mxCell>
        <mxCell id="g5F55-jAJaY4PQHa4soR-17" value="D3" style="rounded=0;whiteSpace=wrap;html=1;" vertex="1" parent="1">
          <mxGeometry x="610.16" y="130" width="40" height="40" as="geometry" />
        </mxCell>
        <mxCell id="g5F55-jAJaY4PQHa4soR-18" value="ลูกค้า" style="shape=partialRectangle;whiteSpace=wrap;html=1;left=0;right=0;fillColor=none;" vertex="1" parent="1">
          <mxGeometry x="650.16" y="240" width="120" height="40" as="geometry" />
        </mxCell>
        <mxCell id="g5F55-jAJaY4PQHa4soR-19" value="D4" style="rounded=0;whiteSpace=wrap;html=1;" vertex="1" parent="1">
          <mxGeometry x="610.16" y="240" width="40" height="40" as="geometry" />
        </mxCell>
        <mxCell id="g5F55-jAJaY4PQHa4soR-20" value="การจอง" style="shape=partialRectangle;whiteSpace=wrap;html=1;left=0;right=0;fillColor=none;" vertex="1" parent="1">
          <mxGeometry x="650.16" y="680" width="120" height="40" as="geometry" />
        </mxCell>
        <mxCell id="g5F55-jAJaY4PQHa4soR-21" value="D6" style="rounded=0;whiteSpace=wrap;html=1;" vertex="1" parent="1">
          <mxGeometry x="610.16" y="680" width="40" height="40" as="geometry" />
        </mxCell>
        <mxCell id="g5F55-jAJaY4PQHa4soR-22" value="การชำระเงิน" style="shape=partialRectangle;whiteSpace=wrap;html=1;left=0;right=0;fillColor=none;" vertex="1" parent="1">
          <mxGeometry x="670" y="840" width="120" height="40" as="geometry" />
        </mxCell>
        <mxCell id="g5F55-jAJaY4PQHa4soR-23" value="D7" style="rounded=0;whiteSpace=wrap;html=1;" vertex="1" parent="1">
          <mxGeometry x="630" y="840" width="40" height="40" as="geometry" />
        </mxCell>
        <mxCell id="g5F55-jAJaY4PQHa4soR-24" value="การใช้งาน" style="shape=partialRectangle;whiteSpace=wrap;html=1;left=0;right=0;fillColor=none;" vertex="1" parent="1">
          <mxGeometry x="670.16" y="1050" width="120" height="40" as="geometry" />
        </mxCell>
        <mxCell id="g5F55-jAJaY4PQHa4soR-25" value="D8" style="rounded=0;whiteSpace=wrap;html=1;" vertex="1" parent="1">
          <mxGeometry x="630.16" y="1050" width="40" height="40" as="geometry" />
        </mxCell>
        <mxCell id="g5F55-jAJaY4PQHa4soR-26" value="" style="endArrow=classic;startArrow=classic;html=1;rounded=0;exitX=0.5;exitY=0;exitDx=0;exitDy=0;entryX=0;entryY=0.5;entryDx=0;entryDy=0;" edge="1" parent="1" source="g5F55-jAJaY4PQHa4soR-1" target="g5F55-jAJaY4PQHa4soR-2">
          <mxGeometry width="50" height="50" relative="1" as="geometry">
            <mxPoint x="510" y="190" as="sourcePoint" />
            <mxPoint x="560" y="140" as="targetPoint" />
            <Array as="points">
              <mxPoint x="-5" y="40" />
            </Array>
          </mxGeometry>
        </mxCell>
        <mxCell id="g5F55-jAJaY4PQHa4soR-27" value="" style="endArrow=classic;startArrow=classic;html=1;rounded=0;entryX=0;entryY=0.5;entryDx=0;entryDy=0;exitX=0.75;exitY=0;exitDx=0;exitDy=0;" edge="1" parent="1" source="g5F55-jAJaY4PQHa4soR-2" target="g5F55-jAJaY4PQHa4soR-13">
          <mxGeometry width="50" height="50" relative="1" as="geometry">
            <mxPoint x="510" y="190" as="sourcePoint" />
            <mxPoint x="560" y="140" as="targetPoint" />
            <Array as="points">
              <mxPoint x="427" y="-60" />
            </Array>
          </mxGeometry>
        </mxCell>
        <mxCell id="g5F55-jAJaY4PQHa4soR-28" value="" style="endArrow=classic;startArrow=classic;html=1;rounded=0;entryX=0;entryY=0.5;entryDx=0;entryDy=0;exitX=1;exitY=0.5;exitDx=0;exitDy=0;" edge="1" parent="1" source="g5F55-jAJaY4PQHa4soR-3" target="g5F55-jAJaY4PQHa4soR-15">
          <mxGeometry width="50" height="50" relative="1" as="geometry">
            <mxPoint x="510" y="190" as="sourcePoint" />
            <mxPoint x="560" y="140" as="targetPoint" />
          </mxGeometry>
        </mxCell>
        <mxCell id="g5F55-jAJaY4PQHa4soR-29" value="" style="endArrow=classic;startArrow=classic;html=1;rounded=0;exitX=0.75;exitY=1;exitDx=0;exitDy=0;entryX=0;entryY=0.5;entryDx=0;entryDy=0;" edge="1" parent="1" source="g5F55-jAJaY4PQHa4soR-2" target="g5F55-jAJaY4PQHa4soR-17">
          <mxGeometry width="50" height="50" relative="1" as="geometry">
            <mxPoint x="510" y="190" as="sourcePoint" />
            <mxPoint x="560" y="140" as="targetPoint" />
            <Array as="points">
              <mxPoint x="427" y="150" />
            </Array>
          </mxGeometry>
        </mxCell>
        <mxCell id="g5F55-jAJaY4PQHa4soR-32" value="&lt;span style=&quot;color: rgb(0, 0, 0); font-family: Helvetica; font-size: 12px; font-style: normal; font-variant-ligatures: normal; font-variant-caps: normal; font-weight: 400; letter-spacing: normal; orphans: 2; text-indent: 0px; text-transform: none; widows: 2; word-spacing: 0px; -webkit-text-stroke-width: 0px; white-space: normal; background-color: rgb(251, 251, 251); text-decoration-thickness: initial; text-decoration-style: initial; text-decoration-color: initial; float: none; display: inline !important;&quot;&gt;จัดการข้อมูลบริการและคอร์ส&lt;/span&gt;" style="text;whiteSpace=wrap;html=1;verticalAlign=middle;align=center;" vertex="1" parent="1">
          <mxGeometry x="80" y="10" width="170" height="40" as="geometry" />
        </mxCell>
        <mxCell id="g5F55-jAJaY4PQHa4soR-33" value="&lt;span style=&quot;color: rgb(0, 0, 0); font-family: Helvetica; font-size: 12px; font-style: normal; font-variant-ligatures: normal; font-variant-caps: normal; font-weight: 400; letter-spacing: normal; orphans: 2; text-indent: 0px; text-transform: none; widows: 2; word-spacing: 0px; -webkit-text-stroke-width: 0px; white-space: normal; background-color: rgb(251, 251, 251); text-decoration-thickness: initial; text-decoration-style: initial; text-decoration-color: initial; float: none; display: inline !important;&quot;&gt;ข้อมูลบริการ&lt;/span&gt;" style="text;whiteSpace=wrap;html=1;verticalAlign=middle;align=center;" vertex="1" parent="1">
          <mxGeometry x="490" y="-90" width="90" height="40" as="geometry" />
        </mxCell>
        <mxCell id="g5F55-jAJaY4PQHa4soR-34" value="&lt;span style=&quot;color: rgb(0, 0, 0); font-family: Helvetica; font-size: 12px; font-style: normal; font-variant-ligatures: normal; font-variant-caps: normal; font-weight: 400; letter-spacing: normal; orphans: 2; text-indent: 0px; text-transform: none; widows: 2; word-spacing: 0px; -webkit-text-stroke-width: 0px; white-space: normal; background-color: rgb(251, 251, 251); text-decoration-thickness: initial; text-decoration-style: initial; text-decoration-color: initial; float: none; display: inline !important;&quot;&gt;ข้อมูลคอร์ส&lt;/span&gt;" style="text;whiteSpace=wrap;html=1;verticalAlign=middle;align=center;" vertex="1" parent="1">
          <mxGeometry x="500" y="20" width="90" height="40" as="geometry" />
        </mxCell>
        <mxCell id="g5F55-jAJaY4PQHa4soR-35" value="&lt;span style=&quot;color: rgb(0, 0, 0); font-family: Helvetica; font-size: 12px; font-style: normal; font-variant-ligatures: normal; font-variant-caps: normal; font-weight: 400; letter-spacing: normal; orphans: 2; text-indent: 0px; text-transform: none; widows: 2; word-spacing: 0px; -webkit-text-stroke-width: 0px; white-space: normal; background-color: rgb(251, 251, 251); text-decoration-thickness: initial; text-decoration-style: initial; text-decoration-color: initial; float: none; display: inline !important;&quot;&gt;ข้อมูลหมวดหมู่&lt;/span&gt;" style="text;whiteSpace=wrap;html=1;verticalAlign=middle;align=center;" vertex="1" parent="1">
          <mxGeometry x="490" y="120" width="90" height="40" as="geometry" />
        </mxCell>
        <mxCell id="g5F55-jAJaY4PQHa4soR-36" value="" style="endArrow=classic;startArrow=classic;html=1;rounded=0;entryX=0;entryY=0.5;entryDx=0;entryDy=0;exitX=1;exitY=0.5;exitDx=0;exitDy=0;" edge="1" parent="1" source="g5F55-jAJaY4PQHa4soR-4" target="g5F55-jAJaY4PQHa4soR-19">
          <mxGeometry width="50" height="50" relative="1" as="geometry">
            <mxPoint x="460" y="300" as="sourcePoint" />
            <mxPoint x="510" y="250" as="targetPoint" />
          </mxGeometry>
        </mxCell>
        <mxCell id="g5F55-jAJaY4PQHa4soR-37" value="&lt;span style=&quot;color: rgb(0, 0, 0); font-family: Helvetica; font-size: 12px; font-style: normal; font-variant-ligatures: normal; font-variant-caps: normal; font-weight: 400; letter-spacing: normal; orphans: 2; text-indent: 0px; text-transform: none; widows: 2; word-spacing: 0px; -webkit-text-stroke-width: 0px; white-space: normal; background-color: rgb(251, 251, 251); text-decoration-thickness: initial; text-decoration-style: initial; text-decoration-color: initial; float: none; display: inline !important;&quot;&gt;ข้อมูลลูกค้า&lt;/span&gt;" style="text;whiteSpace=wrap;html=1;verticalAlign=middle;align=center;" vertex="1" parent="1">
          <mxGeometry x="500" y="230" width="90" height="40" as="geometry" />
        </mxCell>
        <mxCell id="g5F55-jAJaY4PQHa4soR-38" value="" style="endArrow=classic;startArrow=classic;html=1;rounded=0;exitX=0.75;exitY=1;exitDx=0;exitDy=0;entryX=0;entryY=0.5;entryDx=0;entryDy=0;" edge="1" parent="1" source="g5F55-jAJaY4PQHa4soR-1" target="g5F55-jAJaY4PQHa4soR-5">
          <mxGeometry width="50" height="50" relative="1" as="geometry">
            <mxPoint x="460" y="320" as="sourcePoint" />
            <mxPoint x="510" y="270" as="targetPoint" />
            <Array as="points">
              <mxPoint x="18" y="270" />
            </Array>
          </mxGeometry>
        </mxCell>
        <mxCell id="g5F55-jAJaY4PQHa4soR-39" value="&lt;span style=&quot;color: rgb(0, 0, 0); font-family: Helvetica; font-size: 12px; font-style: normal; font-variant-ligatures: normal; font-variant-caps: normal; font-weight: 400; letter-spacing: normal; orphans: 2; text-indent: 0px; text-transform: none; widows: 2; word-spacing: 0px; -webkit-text-stroke-width: 0px; white-space: normal; background-color: rgb(251, 251, 251); text-decoration-thickness: initial; text-decoration-style: initial; text-decoration-color: initial; float: none; display: inline !important;&quot;&gt;จัดการข้อมูลลูกค้า&lt;/span&gt;" style="text;whiteSpace=wrap;html=1;verticalAlign=middle;align=center;" vertex="1" parent="1">
          <mxGeometry x="90" y="240" width="120" height="40" as="geometry" />
        </mxCell>
        <mxCell id="g5F55-jAJaY4PQHa4soR-40" value="ลูกค้า" style="rounded=0;whiteSpace=wrap;html=1;" vertex="1" parent="1">
          <mxGeometry x="-50" y="694" width="90" height="40" as="geometry" />
        </mxCell>
        <mxCell id="g5F55-jAJaY4PQHa4soR-41" value="" style="endArrow=classic;startArrow=classic;html=1;rounded=0;entryX=1;entryY=0.5;entryDx=0;entryDy=0;exitX=1;exitY=1;exitDx=0;exitDy=0;" edge="1" parent="1" source="g5F55-jAJaY4PQHa4soR-7" target="g5F55-jAJaY4PQHa4soR-12">
          <mxGeometry width="50" height="50" relative="1" as="geometry">
            <mxPoint x="510" y="280" as="sourcePoint" />
            <mxPoint x="560" y="230" as="targetPoint" />
            <Array as="points">
              <mxPoint x="860" y="660" />
              <mxPoint x="860" y="-60" />
            </Array>
          </mxGeometry>
        </mxCell>
        <mxCell id="g5F55-jAJaY4PQHa4soR-42" value="&lt;span style=&quot;color: rgb(0, 0, 0); font-family: Helvetica; font-size: 12px; font-style: normal; font-variant-ligatures: normal; font-variant-caps: normal; font-weight: 400; letter-spacing: normal; orphans: 2; text-indent: 0px; text-transform: none; widows: 2; word-spacing: 0px; -webkit-text-stroke-width: 0px; white-space: normal; background-color: rgb(251, 251, 251); text-decoration-thickness: initial; text-decoration-style: initial; text-decoration-color: initial; float: none; display: inline !important;&quot;&gt;ข้อมูลบริการ&lt;/span&gt;" style="text;whiteSpace=wrap;html=1;align=center;verticalAlign=middle;" vertex="1" parent="1">
          <mxGeometry x="630" y="630" width="90" height="40" as="geometry" />
        </mxCell>
        <mxCell id="g5F55-jAJaY4PQHa4soR-43" value="" style="endArrow=classic;startArrow=classic;html=1;rounded=0;entryX=1;entryY=0.5;entryDx=0;entryDy=0;exitX=1;exitY=0.75;exitDx=0;exitDy=0;" edge="1" parent="1" source="g5F55-jAJaY4PQHa4soR-6" target="g5F55-jAJaY4PQHa4soR-14">
          <mxGeometry width="50" height="50" relative="1" as="geometry">
            <mxPoint x="510" y="280" as="sourcePoint" />
            <mxPoint x="560" y="230" as="targetPoint" />
            <Array as="points">
              <mxPoint x="850" y="635" />
              <mxPoint x="850" y="50" />
            </Array>
          </mxGeometry>
        </mxCell>
        <mxCell id="g5F55-jAJaY4PQHa4soR-44" value="&lt;span style=&quot;color: rgb(0, 0, 0); font-family: Helvetica; font-size: 12px; font-style: normal; font-variant-ligatures: normal; font-variant-caps: normal; font-weight: 400; letter-spacing: normal; orphans: 2; text-indent: 0px; text-transform: none; widows: 2; word-spacing: 0px; -webkit-text-stroke-width: 0px; white-space: normal; background-color: rgb(251, 251, 251); text-decoration-thickness: initial; text-decoration-style: initial; text-decoration-color: initial; float: none; display: inline !important;&quot;&gt;ข้อมูลคอร์ส&lt;/span&gt;" style="text;whiteSpace=wrap;html=1;verticalAlign=middle;align=center;" vertex="1" parent="1">
          <mxGeometry x="630" y="600" width="90" height="50" as="geometry" />
        </mxCell>
        <mxCell id="g5F55-jAJaY4PQHa4soR-45" value="" style="endArrow=classic;startArrow=classic;html=1;rounded=0;entryX=1;entryY=0.5;entryDx=0;entryDy=0;exitX=1;exitY=0.5;exitDx=0;exitDy=0;" edge="1" parent="1" source="g5F55-jAJaY4PQHa4soR-6" target="g5F55-jAJaY4PQHa4soR-18">
          <mxGeometry width="50" height="50" relative="1" as="geometry">
            <mxPoint x="550" y="450" as="sourcePoint" />
            <mxPoint x="600" y="400" as="targetPoint" />
            <Array as="points">
              <mxPoint x="840" y="610" />
              <mxPoint x="840" y="260" />
            </Array>
          </mxGeometry>
        </mxCell>
        <mxCell id="g5F55-jAJaY4PQHa4soR-46" value="&lt;span style=&quot;color: rgb(0, 0, 0); font-family: Helvetica; font-size: 12px; font-style: normal; font-variant-ligatures: normal; font-variant-caps: normal; font-weight: 400; letter-spacing: normal; orphans: 2; text-indent: 0px; text-transform: none; widows: 2; word-spacing: 0px; -webkit-text-stroke-width: 0px; white-space: normal; background-color: rgb(251, 251, 251); text-decoration-thickness: initial; text-decoration-style: initial; text-decoration-color: initial; float: none; display: inline !important;&quot;&gt;ข้อมูลลูกค้า&lt;/span&gt;" style="text;whiteSpace=wrap;html=1;verticalAlign=middle;align=center;" vertex="1" parent="1">
          <mxGeometry x="630" y="580" width="90" height="40" as="geometry" />
        </mxCell>
        <mxCell id="g5F55-jAJaY4PQHa4soR-47" value="" style="endArrow=classic;startArrow=classic;html=1;rounded=0;entryX=0;entryY=0.5;entryDx=0;entryDy=0;exitX=0.75;exitY=1;exitDx=0;exitDy=0;" edge="1" parent="1" source="g5F55-jAJaY4PQHa4soR-7" target="g5F55-jAJaY4PQHa4soR-21">
          <mxGeometry width="50" height="50" relative="1" as="geometry">
            <mxPoint x="380" y="690" as="sourcePoint" />
            <mxPoint x="600" y="630" as="targetPoint" />
            <Array as="points">
              <mxPoint x="427" y="700" />
            </Array>
          </mxGeometry>
        </mxCell>
        <mxCell id="g5F55-jAJaY4PQHa4soR-48" value="&lt;span style=&quot;color: rgb(0, 0, 0); font-family: Helvetica; font-size: 12px; font-style: normal; font-variant-ligatures: normal; font-variant-caps: normal; font-weight: 400; letter-spacing: normal; orphans: 2; text-indent: 0px; text-transform: none; widows: 2; word-spacing: 0px; -webkit-text-stroke-width: 0px; white-space: normal; background-color: rgb(251, 251, 251); text-decoration-thickness: initial; text-decoration-style: initial; text-decoration-color: initial; float: none; display: inline !important;&quot;&gt;ข้อมูลการจอง&lt;/span&gt;" style="text;whiteSpace=wrap;html=1;verticalAlign=middle;align=center;" vertex="1" parent="1">
          <mxGeometry x="480" y="670" width="90" height="40" as="geometry" />
        </mxCell>
        <mxCell id="g5F55-jAJaY4PQHa4soR-49" value="" style="endArrow=classic;startArrow=classic;html=1;rounded=0;exitX=0.5;exitY=0;exitDx=0;exitDy=0;entryX=0;entryY=0.5;entryDx=0;entryDy=0;" edge="1" parent="1" source="g5F55-jAJaY4PQHa4soR-40" target="g5F55-jAJaY4PQHa4soR-7">
          <mxGeometry width="50" height="50" relative="1" as="geometry">
            <mxPoint x="210" y="630" as="sourcePoint" />
            <mxPoint x="260" y="580" as="targetPoint" />
            <Array as="points">
              <mxPoint x="-5" y="620" />
            </Array>
          </mxGeometry>
        </mxCell>
        <mxCell id="g5F55-jAJaY4PQHa4soR-50" value="&lt;span style=&quot;color: rgb(0, 0, 0); font-family: Helvetica; font-size: 12px; font-style: normal; font-variant-ligatures: normal; font-variant-caps: normal; font-weight: 400; letter-spacing: normal; orphans: 2; text-indent: 0px; text-transform: none; widows: 2; word-spacing: 0px; -webkit-text-stroke-width: 0px; white-space: normal; background-color: rgb(251, 251, 251); text-decoration-thickness: initial; text-decoration-style: initial; text-decoration-color: initial; float: none; display: inline !important;&quot;&gt;จัดการข้อมูลการจอง&lt;/span&gt;" style="text;whiteSpace=wrap;html=1;verticalAlign=middle;align=center;" vertex="1" parent="1">
          <mxGeometry x="80" y="590" width="130" height="40" as="geometry" />
        </mxCell>
        <mxCell id="g5F55-jAJaY4PQHa4soR-51" value="" style="endArrow=classic;startArrow=classic;html=1;rounded=0;exitX=0.75;exitY=1;exitDx=0;exitDy=0;entryX=0;entryY=0.5;entryDx=0;entryDy=0;" edge="1" parent="1" source="g5F55-jAJaY4PQHa4soR-40" target="g5F55-jAJaY4PQHa4soR-9">
          <mxGeometry width="50" height="50" relative="1" as="geometry">
            <mxPoint x="210" y="880" as="sourcePoint" />
            <mxPoint x="260" y="830" as="targetPoint" />
            <Array as="points">
              <mxPoint x="18" y="840" />
            </Array>
          </mxGeometry>
        </mxCell>
        <mxCell id="g5F55-jAJaY4PQHa4soR-52" value="3" style="swimlane;whiteSpace=wrap;html=1;startSize=20;" vertex="1" parent="1">
          <mxGeometry x="310" y="360" width="156" height="100" as="geometry" />
        </mxCell>
        <mxCell id="g5F55-jAJaY4PQHa4soR-53" value="จัดการข้อมูลพนักงาน" style="rounded=0;whiteSpace=wrap;html=1;" vertex="1" parent="g5F55-jAJaY4PQHa4soR-52">
          <mxGeometry y="20" width="156" height="80" as="geometry" />
        </mxCell>
        <mxCell id="g5F55-jAJaY4PQHa4soR-55" value="พนักงาน" style="shape=partialRectangle;whiteSpace=wrap;html=1;left=0;right=0;fillColor=none;" vertex="1" parent="1">
          <mxGeometry x="650.16" y="400" width="120" height="40" as="geometry" />
        </mxCell>
        <mxCell id="g5F55-jAJaY4PQHa4soR-56" value="D5" style="rounded=0;whiteSpace=wrap;html=1;" vertex="1" parent="1">
          <mxGeometry x="610.16" y="400" width="40" height="40" as="geometry" />
        </mxCell>
        <mxCell id="g5F55-jAJaY4PQHa4soR-57" value="" style="endArrow=classic;startArrow=classic;html=1;rounded=0;exitX=1;exitY=0.5;exitDx=0;exitDy=0;entryX=0;entryY=0.5;entryDx=0;entryDy=0;" edge="1" parent="1" source="g5F55-jAJaY4PQHa4soR-53" target="g5F55-jAJaY4PQHa4soR-56">
          <mxGeometry width="50" height="50" relative="1" as="geometry">
            <mxPoint x="400" y="360" as="sourcePoint" />
            <mxPoint x="450" y="310" as="targetPoint" />
          </mxGeometry>
        </mxCell>
        <mxCell id="g5F55-jAJaY4PQHa4soR-58" value="&lt;span style=&quot;color: rgb(0, 0, 0); font-family: Helvetica; font-size: 12px; font-style: normal; font-variant-ligatures: normal; font-variant-caps: normal; font-weight: 400; letter-spacing: normal; orphans: 2; text-indent: 0px; text-transform: none; widows: 2; word-spacing: 0px; -webkit-text-stroke-width: 0px; white-space: normal; background-color: rgb(251, 251, 251); text-decoration-thickness: initial; text-decoration-style: initial; text-decoration-color: initial; float: none; display: inline !important;&quot;&gt;ข้อมูลพนักงาน&lt;/span&gt;" style="text;whiteSpace=wrap;html=1;verticalAlign=middle;align=center;" vertex="1" parent="1">
          <mxGeometry x="500" y="390" width="90" height="40" as="geometry" />
        </mxCell>
        <mxCell id="g5F55-jAJaY4PQHa4soR-59" value="" style="endArrow=classic;startArrow=classic;html=1;rounded=0;entryX=0.5;entryY=1;entryDx=0;entryDy=0;exitX=0;exitY=0.5;exitDx=0;exitDy=0;" edge="1" parent="1" source="g5F55-jAJaY4PQHa4soR-53" target="g5F55-jAJaY4PQHa4soR-1">
          <mxGeometry width="50" height="50" relative="1" as="geometry">
            <mxPoint x="400" y="360" as="sourcePoint" />
            <mxPoint x="450" y="310" as="targetPoint" />
            <Array as="points">
              <mxPoint x="-5" y="420" />
            </Array>
          </mxGeometry>
        </mxCell>
        <mxCell id="g5F55-jAJaY4PQHa4soR-60" value="&lt;span style=&quot;color: rgb(0, 0, 0); font-family: Helvetica; font-size: 12px; font-style: normal; font-variant-ligatures: normal; font-variant-caps: normal; font-weight: 400; letter-spacing: normal; orphans: 2; text-indent: 0px; text-transform: none; widows: 2; word-spacing: 0px; -webkit-text-stroke-width: 0px; white-space: normal; background-color: rgb(251, 251, 251); text-decoration-thickness: initial; text-decoration-style: initial; text-decoration-color: initial; float: none; display: inline !important;&quot;&gt;จัดการข้อมูลพนักงาน&lt;/span&gt;" style="text;whiteSpace=wrap;html=1;verticalAlign=middle;align=center;" vertex="1" parent="1">
          <mxGeometry x="90" y="390" width="120" height="40" as="geometry" />
        </mxCell>
        <mxCell id="g5F55-jAJaY4PQHa4soR-62" value="" style="endArrow=classic;startArrow=classic;html=1;rounded=0;entryX=1;entryY=0.5;entryDx=0;entryDy=0;exitX=1;exitY=0.25;exitDx=0;exitDy=0;" edge="1" parent="1" source="g5F55-jAJaY4PQHa4soR-6" target="g5F55-jAJaY4PQHa4soR-55">
          <mxGeometry width="50" height="50" relative="1" as="geometry">
            <mxPoint x="660" y="570" as="sourcePoint" />
            <mxPoint x="710" y="520" as="targetPoint" />
            <Array as="points">
              <mxPoint x="820" y="585" />
              <mxPoint x="820" y="420" />
            </Array>
          </mxGeometry>
        </mxCell>
        <mxCell id="g5F55-jAJaY4PQHa4soR-63" value="&lt;span style=&quot;color: rgb(0, 0, 0); font-family: Helvetica; font-size: 12px; font-style: normal; font-variant-ligatures: normal; font-variant-caps: normal; font-weight: 400; letter-spacing: normal; orphans: 2; text-indent: 0px; text-transform: none; widows: 2; word-spacing: 0px; -webkit-text-stroke-width: 0px; white-space: normal; background-color: rgb(251, 251, 251); text-decoration-thickness: initial; text-decoration-style: initial; text-decoration-color: initial; float: none; display: inline !important;&quot;&gt;ข้อมูลพนักงาน&lt;/span&gt;" style="text;whiteSpace=wrap;html=1;verticalAlign=middle;align=center;" vertex="1" parent="1">
          <mxGeometry x="630" y="550" width="90" height="40" as="geometry" />
        </mxCell>
        <mxCell id="g5F55-jAJaY4PQHa4soR-64" value="" style="endArrow=classic;startArrow=classic;html=1;rounded=0;exitX=1;exitY=0.25;exitDx=0;exitDy=0;entryX=1;entryY=0.75;entryDx=0;entryDy=0;" edge="1" parent="1" source="g5F55-jAJaY4PQHa4soR-8" target="g5F55-jAJaY4PQHa4soR-20">
          <mxGeometry width="50" height="50" relative="1" as="geometry">
            <mxPoint x="490" y="770" as="sourcePoint" />
            <mxPoint x="540" y="720" as="targetPoint" />
            <Array as="points">
              <mxPoint x="810" y="805" />
              <mxPoint x="810" y="710" />
            </Array>
          </mxGeometry>
        </mxCell>
        <mxCell id="g5F55-jAJaY4PQHa4soR-65" value="&lt;span style=&quot;color: rgb(0, 0, 0); font-family: Helvetica; font-size: 12px; font-style: normal; font-variant-ligatures: normal; font-variant-caps: normal; font-weight: 400; letter-spacing: normal; orphans: 2; text-indent: 0px; text-transform: none; widows: 2; word-spacing: 0px; -webkit-text-stroke-width: 0px; white-space: normal; background-color: rgb(251, 251, 251); text-decoration-thickness: initial; text-decoration-style: initial; text-decoration-color: initial; float: none; display: inline !important;&quot;&gt;ข้อมูลการจอง&lt;/span&gt;" style="text;whiteSpace=wrap;html=1;verticalAlign=middle;align=center;" vertex="1" parent="1">
          <mxGeometry x="585.16" y="770" width="90" height="47" as="geometry" />
        </mxCell>
        <mxCell id="g5F55-jAJaY4PQHa4soR-66" value="" style="endArrow=classic;startArrow=classic;html=1;rounded=0;exitX=1;exitY=0.75;exitDx=0;exitDy=0;entryX=0;entryY=0.5;entryDx=0;entryDy=0;" edge="1" parent="1" source="g5F55-jAJaY4PQHa4soR-9" target="g5F55-jAJaY4PQHa4soR-23">
          <mxGeometry width="50" height="50" relative="1" as="geometry">
            <mxPoint x="600" y="790" as="sourcePoint" />
            <mxPoint x="650" y="740" as="targetPoint" />
          </mxGeometry>
        </mxCell>
        <mxCell id="g5F55-jAJaY4PQHa4soR-67" value="&lt;span style=&quot;color: rgb(0, 0, 0); font-family: Helvetica; font-size: 12px; font-style: normal; font-variant-ligatures: normal; font-variant-caps: normal; font-weight: 400; letter-spacing: normal; orphans: 2; text-indent: 0px; text-transform: none; widows: 2; word-spacing: 0px; -webkit-text-stroke-width: 0px; white-space: normal; background-color: rgb(251, 251, 251); text-decoration-thickness: initial; text-decoration-style: initial; text-decoration-color: initial; float: none; display: inline !important;&quot;&gt;ข้อมูลการชำระเงิน&lt;/span&gt;" style="text;whiteSpace=wrap;html=1;verticalAlign=middle;align=center;" vertex="1" parent="1">
          <mxGeometry x="500" y="830" width="100" height="41" as="geometry" />
        </mxCell>
        <mxCell id="g5F55-jAJaY4PQHa4soR-68" value="&lt;span style=&quot;color: rgb(0, 0, 0); font-family: Helvetica; font-size: 12px; font-style: normal; font-variant-ligatures: normal; font-variant-caps: normal; font-weight: 400; letter-spacing: normal; orphans: 2; text-indent: 0px; text-transform: none; widows: 2; word-spacing: 0px; -webkit-text-stroke-width: 0px; white-space: normal; background-color: rgb(251, 251, 251); text-decoration-thickness: initial; text-decoration-style: initial; text-decoration-color: initial; float: none; display: inline !important;&quot;&gt;แจ้งข้อมูลการชำระเงิน&lt;/span&gt;" style="text;whiteSpace=wrap;html=1;align=center;verticalAlign=middle;" vertex="1" parent="1">
          <mxGeometry x="80" y="810" width="150" height="40" as="geometry" />
        </mxCell>
        <mxCell id="g5F55-jAJaY4PQHa4soR-69" value="" style="endArrow=classic;startArrow=classic;html=1;rounded=0;entryX=0.25;entryY=1;entryDx=0;entryDy=0;exitX=0;exitY=0.5;exitDx=0;exitDy=0;" edge="1" parent="1" source="g5F55-jAJaY4PQHa4soR-11" target="g5F55-jAJaY4PQHa4soR-40">
          <mxGeometry width="50" height="50" relative="1" as="geometry">
            <mxPoint x="420" y="1000" as="sourcePoint" />
            <mxPoint x="470" y="950" as="targetPoint" />
            <Array as="points">
              <mxPoint x="-27" y="1000" />
            </Array>
          </mxGeometry>
        </mxCell>
        <mxCell id="g5F55-jAJaY4PQHa4soR-70" value="&lt;span style=&quot;color: rgb(0, 0, 0); font-family: Helvetica; font-size: 12px; font-style: normal; font-variant-ligatures: normal; font-variant-caps: normal; font-weight: 400; letter-spacing: normal; orphans: 2; text-indent: 0px; text-transform: none; widows: 2; word-spacing: 0px; -webkit-text-stroke-width: 0px; white-space: normal; background-color: rgb(251, 251, 251); text-decoration-thickness: initial; text-decoration-style: initial; text-decoration-color: initial; float: none; display: inline !important;&quot;&gt;แจ้งข้อมูลการใช้งาน&lt;/span&gt;" style="text;whiteSpace=wrap;html=1;align=center;verticalAlign=middle;" vertex="1" parent="1">
          <mxGeometry x="75" y="970" width="150" height="40" as="geometry" />
        </mxCell>
        <mxCell id="g5F55-jAJaY4PQHa4soR-71" value="" style="endArrow=classic;startArrow=classic;html=1;rounded=0;exitX=1;exitY=0.25;exitDx=0;exitDy=0;entryX=1;entryY=0.5;entryDx=0;entryDy=0;" edge="1" parent="1" source="g5F55-jAJaY4PQHa4soR-10" target="g5F55-jAJaY4PQHa4soR-22">
          <mxGeometry width="50" height="50" relative="1" as="geometry">
            <mxPoint x="480" y="1050" as="sourcePoint" />
            <mxPoint x="530" y="1000" as="targetPoint" />
            <Array as="points">
              <mxPoint x="820" y="965" />
              <mxPoint x="820" y="860" />
            </Array>
          </mxGeometry>
        </mxCell>
        <mxCell id="g5F55-jAJaY4PQHa4soR-72" value="&lt;span style=&quot;color: rgb(0, 0, 0); font-family: Helvetica; font-size: 12px; font-style: normal; font-variant-ligatures: normal; font-variant-caps: normal; font-weight: 400; letter-spacing: normal; orphans: 2; text-indent: 0px; text-transform: none; widows: 2; word-spacing: 0px; -webkit-text-stroke-width: 0px; white-space: normal; background-color: rgb(251, 251, 251); text-decoration-thickness: initial; text-decoration-style: initial; text-decoration-color: initial; float: none; display: inline !important;&quot;&gt;ข้อมูลการชำระเงิน&lt;/span&gt;" style="text;whiteSpace=wrap;html=1;verticalAlign=middle;align=center;" vertex="1" parent="1">
          <mxGeometry x="585.16" y="930" width="100" height="48" as="geometry" />
        </mxCell>
        <mxCell id="g5F55-jAJaY4PQHa4soR-73" value="" style="endArrow=classic;startArrow=classic;html=1;rounded=0;entryX=1;entryY=0.25;entryDx=0;entryDy=0;exitX=1;exitY=0.5;exitDx=0;exitDy=0;" edge="1" parent="1" source="g5F55-jAJaY4PQHa4soR-11" target="g5F55-jAJaY4PQHa4soR-20">
          <mxGeometry width="50" height="50" relative="1" as="geometry">
            <mxPoint x="480" y="890" as="sourcePoint" />
            <mxPoint x="530" y="840" as="targetPoint" />
            <Array as="points">
              <mxPoint x="850" y="1000" />
              <mxPoint x="850" y="690" />
            </Array>
          </mxGeometry>
        </mxCell>
        <mxCell id="g5F55-jAJaY4PQHa4soR-74" value="&lt;span style=&quot;color: rgb(0, 0, 0); font-family: Helvetica; font-size: 12px; font-style: normal; font-variant-ligatures: normal; font-variant-caps: normal; font-weight: 400; letter-spacing: normal; orphans: 2; text-indent: 0px; text-transform: none; widows: 2; word-spacing: 0px; -webkit-text-stroke-width: 0px; white-space: normal; background-color: rgb(251, 251, 251); text-decoration-thickness: initial; text-decoration-style: initial; text-decoration-color: initial; float: none; display: inline !important;&quot;&gt;ข้อมูลการจอง&lt;/span&gt;" style="text;whiteSpace=wrap;html=1;verticalAlign=middle;align=center;" vertex="1" parent="1">
          <mxGeometry x="585.16" y="970" width="90" height="40" as="geometry" />
        </mxCell>
        <mxCell id="g5F55-jAJaY4PQHa4soR-75" value="" style="endArrow=classic;startArrow=classic;html=1;rounded=0;exitX=0.75;exitY=1;exitDx=0;exitDy=0;entryX=0;entryY=0.5;entryDx=0;entryDy=0;" edge="1" parent="1" source="g5F55-jAJaY4PQHa4soR-10" target="g5F55-jAJaY4PQHa4soR-25">
          <mxGeometry width="50" height="50" relative="1" as="geometry">
            <mxPoint x="480" y="1060" as="sourcePoint" />
            <mxPoint x="530" y="1010" as="targetPoint" />
            <Array as="points">
              <mxPoint x="427" y="1070" />
            </Array>
          </mxGeometry>
        </mxCell>
        <mxCell id="g5F55-jAJaY4PQHa4soR-76" value="&lt;span style=&quot;color: rgb(0, 0, 0); font-family: Helvetica; font-size: 12px; font-style: normal; font-variant-ligatures: normal; font-variant-caps: normal; font-weight: 400; letter-spacing: normal; orphans: 2; text-indent: 0px; text-transform: none; widows: 2; word-spacing: 0px; -webkit-text-stroke-width: 0px; white-space: normal; background-color: rgb(251, 251, 251); text-decoration-thickness: initial; text-decoration-style: initial; text-decoration-color: initial; float: none; display: inline !important;&quot;&gt;ข้อมูลการใช้งาน&lt;/span&gt;" style="text;whiteSpace=wrap;html=1;verticalAlign=middle;align=center;" vertex="1" parent="1">
          <mxGeometry x="480" y="1040" width="90" height="40" as="geometry" />
        </mxCell>
      </root>
    </mxGraphModel>
  </diagram>
</mxfile>
